<?xml version="1.0" encoding="UTF-8" standalone="no"?>
<!DOCTYPE svg PUBLIC "-//W3C//DTD SVG 1.1//EN" "http://www.w3.org/Graphics/SVG/1.1/DTD/svg11.dtd">
<svg width="100%" height="100%" viewBox="0 0 200 200" version="1.1" xmlns="http://www.w3.org/2000/svg" xmlns:xlink="http://www.w3.org/1999/xlink" xml:space="preserve" style="fill-rule:evenodd;clip-rule:evenodd;stroke-linejoin:round;stroke-miterlimit:1.41421;">
    <g transform="matrix(5,0,0,5,20,20.0621)">
        <path d="M21.256,-0.018C21.043,-0.032 20.825,-0.025 20.6,0L14.6,1C13.8,1.1 13.1,1.499 12.6,2.199C12.1,2.899 11.9,3.7 12.1,4.5L12.758,7L12.5,7C11.7,7 11,7.7 11,8.5L11,9.5C11,10.3 11.7,11 12.5,11L13.088,11C13.209,11.711 13.454,12.395 13.814,13L2.5,13C2.2,13 2,13.2 2,13.5L2,25C2,25.365 2.107,25.705 2.279,26L2,26C0.9,26 0,26.9 0,28C0,29.1 0.9,30 2,30L2,31.5C2,31.8 2.2,32 2.5,32C2.8,32 3,31.8 3,31.5L3,30L29,30L29,31.5C29,31.8 29.2,32 29.5,32C29.8,32 30,31.8 30,31.5L30,30C31.1,30 32,29.1 32,28C32,26.934 31.153,26.063 30.1,26.01L30.1,22.801C30.1,22.001 29.8,21.1 29.4,20.4C29.362,20.362 29.3,20.327 29.238,20.295C28.672,19.409 27.83,18.725 26.801,18.4L22.4,16.902L22.4,16.9L22.4,14.934C22.93,14.566 23.395,14.113 23.783,13.6L24,13.6C25.6,13.6 27,12.2 27,10.6L27,8.9L27,8.5C27,7.7 26.3,7 25.5,7L26,5.6C26.2,4.9 26,4.1 25.5,3.5C25.1,3 24.6,2.7 24,2.6C23.9,1.9 23.6,1.199 23,0.699C22.475,0.249 21.893,0.025 21.256,-0.018ZM21.146,0.965C21.587,0.97 22.001,1.1 22.301,1.4C22.701,1.8 23,2.4 23,3C23,3.3 23.2,3.5 23.5,3.5C24,3.5 24.399,3.7 24.699,4.1C24.999,4.4 25.1,4.901 25,5.301L24.1,7.801C23.9,7.801 23.699,7.6 23.699,7.4L23.699,5.699C23.699,5.399 23.499,5.1 23.199,4.9C22.899,4.8 22.499,4.8 22.199,5C20.599,6.2 18.5,6.701 16.5,6.301L15.5,6.1C14.7,6.1 14.1,6.8 14.1,7.5C14.1,7.573 14.069,7.642 14.025,7.705C14.017,7.704 14.009,7.699 14,7.699L13.1,4.301C13,3.801 13.1,3.201 13.4,2.801C13.7,2.401 14.199,2.1 14.699,2L20.699,1C20.849,0.975 21,0.963 21.146,0.965ZM22.699,5.9L22.699,7.4C22.699,8.162 23.335,8.738 24,8.791L24,10C24,10.962 23.726,11.844 23.271,12.6L20.5,12.6C20.2,12.6 20,12.8 20,13.1C20,13.4 20.2,13.6 20.5,13.6L22.492,13.6C21.597,14.468 20.372,15 19,15C18.7,15 18.3,15 18,14.9L18,13.5C18,13.2 17.8,13 17.5,13L15,13C14.4,12.2 14,11.1 14,10L14,9L14,8.865C14.645,8.717 15.1,8.109 15.1,7.5C15.1,7.3 15.3,7.1 15.4,7.1L16.301,7.301C18.501,7.701 20.899,7.2 22.699,5.9ZM13.02,7.996L13.033,8.045C12.949,8.132 12.9,8.254 12.9,8.4C12.9,8.523 12.94,8.623 13,8.705L13,10L12.5,10C12.2,10 12,9.8 12,9.5L12,8.5C12,8.2 12.2,8 12.5,8L13,8C13.007,8 13.012,7.996 13.02,7.996ZM25.143,8L25.5,8C25.8,8 26,8.2 26,8.5L26,9.5C26,9.8 25.8,10 25.5,10L25,10L25,8.5C25,8.473 24.991,8.451 24.988,8.426C24.992,8.416 24.997,8.41 25,8.4L25.143,8ZM25.969,10.912C25.839,11.726 25.219,12.38 24.42,12.553C24.651,12.067 24.815,11.546 24.908,11L25.5,11C25.663,11 25.819,10.965 25.969,10.912ZM3,14L17,14L17,23L3,23L3,14ZM21.4,15.494L21.4,16.9C21.4,17.9 19.8,18.901 19,19.301C18.744,19.216 18.401,18.977 18,18.725L18,15.904C18.342,15.958 18.688,16 19,16C19.853,16 20.664,15.818 21.4,15.494ZM10,17.5C9.451,17.5 9,17.951 9,18.5C9,19.049 9.451,19.5 10,19.5C10.549,19.5 11,19.049 11,18.5C11,17.951 10.549,17.5 10,17.5ZM22.15,17.818L26.5,19.301C27.129,19.511 27.662,19.884 28.078,20.359C25.7,20.994 24,23.181 24,25.699L24,26L19.721,26C19.893,25.705 20,25.365 20,25L20,23.5C20,23.2 19.8,23 19.5,23L18,23L18,19.863C18.442,20.11 18.801,20.301 18.801,20.301L19.199,20.301C19.448,20.135 21.459,19.208 22.15,17.818ZM28.6,21.199C28.725,21.408 28.808,21.635 28.871,21.863C28.889,21.932 28.906,22 28.92,22.07C28.971,22.321 29,22.573 29,22.801L29,26L24.9,26L24.9,25.699C24.9,23.499 26.5,21.599 28.6,21.199ZM3,24L19,24L19,25C19,25.6 18.6,26 18,26L4,26C3.4,26 3,25.6 3,25L3,24ZM2,27L30,27C30.6,27 31,27.4 31,28C31,28.6 30.6,29 30,29L29.5,29L2.5,29L2,29C1.4,29 1,28.6 1,28C1,27.4 1.4,27 2,27Z" style="fill-rule:nonzero;"/>
    </g>
</svg>
