<?xml version="1.0" encoding="UTF-8" standalone="no"?>
<!DOCTYPE svg PUBLIC "-//W3C//DTD SVG 1.1//EN" "http://www.w3.org/Graphics/SVG/1.1/DTD/svg11.dtd">
<svg width="100%" height="100%" viewBox="0 0 200 200" version="1.1" xmlns="http://www.w3.org/2000/svg" xmlns:xlink="http://www.w3.org/1999/xlink" xml:space="preserve" style="fill-rule:evenodd;clip-rule:evenodd;stroke-linejoin:round;stroke-miterlimit:1.41421;">
    <g transform="matrix(2.49972,0,0,2.49972,20,20.009)">
        <path d="M33,0C35.743,0 38,2.257 38,5L38,15L36,15L36,5C36,3.354 34.646,2 33,2L5,2C3.354,2 2,3.354 2,5L2,59C2,60.646 3.354,62 5,62L33,62C34.646,62 36,60.646 36,59L36,49L38,49L38,59C38,61.743 35.743,64 33,64L5,64C2.257,64 0,61.743 0,59L0,5C0,2.257 2.257,0 5,0L33,0ZM13,58L23,58L23,60L13,60L13,58ZM33,6C33.549,6 34,6.451 34,7L34,15L32,15L32,8L6,8L6,54L32,54L32,49L34,49L34,55C34,55.549 33.549,56 33,56L5,56C4.451,56 4,55.549 4,55L4,7C4,6.451 4.451,6 5,6L33,6ZM14,46L14,48L12,48L12,46L14,46ZM14,20L14,25.38C16.22,22.024 19.985,20.001 24.008,20.001C26.626,20.001 29.174,20.858 31.26,22.44L37.35,17.22C37.584,17.02 37.898,16.938 38.2,17L63.2,22C63.671,22.096 64.01,22.519 64,23L64,38C64.01,38.08 64.01,38.16 64,38.24C63.92,38.44 62.68,43 54,43C47.53,43 45.71,40.46 45.2,39L43.25,39C43.596,39.587 43.779,40.256 43.779,40.937C43.779,43.027 42.059,44.747 39.969,44.747C39.558,44.747 39.15,44.68 38.76,44.55C38.162,46.006 36.736,46.961 35.162,46.961C34.13,46.961 33.139,46.55 32.41,45.82L29.34,42.75C23.943,45.427 17.324,43.645 14,38.62L14,44L12,44L12,20L14,20ZM36.45,44.45C35.717,45.181 34.513,45.181 33.78,44.45L31,41.72C32.047,40.966 32.966,40.047 33.72,39L36.45,41.73C37.181,42.463 37.181,43.667 36.45,44.4L36.45,44.45ZM40.58,39L36.5,39L37.87,40.37C38.445,40.945 38.823,41.687 38.95,42.49C39.254,42.697 39.612,42.807 39.98,42.807C40.984,42.807 41.81,41.981 41.81,40.977C41.81,40.505 41.627,40.051 41.3,39.71L40.58,39ZM14,32C13.994,31.86 13.991,31.72 13.991,31.58C13.991,26.089 18.509,21.571 24,21.571C29.332,21.571 33.776,25.832 34,31.16C32.27,31.637 31.062,33.222 31.062,35.016C31.062,36.055 31.467,37.054 32.19,37.8C30.32,40.469 27.259,42.062 24,42.062C18.514,42.062 14,37.548 14,32.062C14,32.042 14,32.021 14,32ZM46,37C46.549,37 47,37.451 47,38C47,38.1 47.23,41 54,41C60.39,41 61.78,38.39 62,37.84L62,23.82L38.28,19.08L32.75,23.82C34.596,25.783 35.724,28.315 35.95,31L45.59,31L48.3,28.3L49.71,29.71L46.71,32.71C46.521,32.897 46.266,33.002 46,33L35,33C33.903,33 33,33.903 33,35C33,36.097 33.903,37 35,37L46,37ZM22,27L23,27L23,26L25,26L25,27L26,27C27.646,27 29,28.354 29,30L27,30C27,29.451 26.549,29 26,29L22,29C21.451,29 21,29.451 21,30C21,30.549 21.451,31 22,31L26,31C27.646,31 29,32.354 29,34C29,35.646 27.646,37 26,37L25,37L25,38L23,38L23,37L22,37C20.354,37 19,35.646 19,34L21,34C21,34.549 21.451,35 22,35L26,35C26.549,35 27,34.549 27,34C27,33.451 26.549,33 26,33L22,33C20.354,33 19,31.646 19,30C19,28.354 20.354,27 22,27ZM8,14L10,14L10,16L8,16L8,14ZM12,10L14,10L14,12L12,12L12,10ZM8,10L10,10L10,12L8,12L8,10Z"/>
    </g>
</svg>
