<?xml version="1.0" encoding="UTF-8" standalone="no"?>
<!DOCTYPE svg PUBLIC "-//W3C//DTD SVG 1.1//EN" "http://www.w3.org/Graphics/SVG/1.1/DTD/svg11.dtd">
<svg width="100%" height="100%" viewBox="0 0 200 200" version="1.1" xmlns="http://www.w3.org/2000/svg" xmlns:xlink="http://www.w3.org/1999/xlink" xml:space="preserve" style="fill-rule:evenodd;clip-rule:evenodd;stroke-linejoin:round;stroke-miterlimit:1.41421;">
    <g transform="matrix(1.79008,0,0,1.79008,9.86793,10.3718)">
        <path d="M71.504,4.82C75.164,4.82 77.721,7.77 77.721,11.43L77.721,35.216L71.257,46.799L71.257,11.284L13.078,11.284L13.078,88.855L71.257,88.855L71.257,79.414L77.721,67.831L77.721,89.113C77.721,92.772 75.164,95.319 71.504,95.319L12.809,95.319C9.15,95.319 6.614,92.772 6.614,89.113L6.614,11.43C6.614,7.771 9.15,4.82 12.809,4.82L71.504,4.82ZM60.174,74.625L60.174,82.391L66.846,78.353L89.821,38.595L83.33,34.868L60.174,74.625ZM18.619,63.922L54.635,63.922L54.635,68.539L18.619,68.539L18.619,63.922ZM18.619,53.764L65.717,53.764L65.717,58.381L18.619,58.381L18.619,53.764ZM18.619,42.682L54.635,42.682L54.635,47.299L18.619,47.299L18.619,42.682ZM18.619,32.523L65.717,32.523L65.717,37.141L18.619,37.141L18.619,32.523ZM87.599,28.092L85.848,31.141L85.092,32.457L91.583,36.183L92.338,34.868L94.088,31.819L87.599,28.092ZM18.619,21.442L54.635,21.442L54.635,26.059L18.619,26.059L18.619,21.442Z"/>
    </g>
</svg>
