<?xml version="1.0" encoding="UTF-8" standalone="no"?>
<!DOCTYPE svg PUBLIC "-//W3C//DTD SVG 1.1//EN" "http://www.w3.org/Graphics/SVG/1.1/DTD/svg11.dtd">
<svg width="100%" height="100%" viewBox="0 0 200 200" version="1.1" xmlns="http://www.w3.org/2000/svg" xmlns:xlink="http://www.w3.org/1999/xlink" xml:space="preserve" style="fill-rule:evenodd;clip-rule:evenodd;stroke-linejoin:round;stroke-miterlimit:1.41421;">
    <g transform="matrix(5.04679,0,0,5.04679,19.2514,19)">
        <path d="M16,0C11,0 7,4 7,9L7,18.5C7,18.7 7.2,18.9 7.4,19L8.801,19.4C9.844,19.574 10.891,19.815 12,19.943L12,20C12,20.045 12.011,20.087 12.014,20.131L6.801,21.9C4.751,22.524 3.342,24.263 3.059,26.332C3.021,26.586 3,26.842 3,27.1L3,31.5C3,31.8 3.2,32 3.5,32L12.5,32C12.6,32 12.6,32 12.6,32.1C12.652,32.073 12.705,32.04 12.752,32L28.5,32C28.575,32 28.644,31.988 28.705,31.965C28.888,31.899 29,31.75 29,31.6L29,27.199L29,27.1C29,26.567 28.909,26.065 28.754,25.574C28.714,25.443 28.663,25.317 28.613,25.189C28.57,25.079 28.527,24.969 28.477,24.859C28.429,24.756 28.38,24.654 28.326,24.555C28.283,24.47 28.246,24.385 28.199,24.301C28.188,24.289 28.165,24.279 28.15,24.268C27.486,23.21 26.471,22.387 25.199,22L19.979,20.229C19.987,20.152 20,20.078 20,20L20,19.875C21.046,19.77 22.164,19.583 23.199,19.301L24.6,19C24.8,18.9 25,18.7 25,18.5L25,12.5L25,10.5L25,9C25,4 21,0 16,0ZM15.9,1C20.3,1 23.9,4.6 23.9,9L23.9,9.064C23.771,9.026 23.638,9 23.5,9L23,9L23,8.6C23,8.2 22.8,7.8 22.5,7.6C22.2,7.3 21.701,7.099 21.301,7.199L18.9,7.5C16.5,7.8 14.1,7.199 12.1,5.699C11.8,5.499 11.4,5.4 11.1,5.6C10.7,5.8 10.5,6.1 10.5,6.5L10.5,7.5C10.5,8.3 9.8,9 9,9L8,9C8,4.6 11.5,1 15.9,1ZM11.5,6.4C13.6,8.1 16.3,8.8 19,8.4L21.4,8.1C21.6,8.1 21.701,8.099 21.801,8.199C21.901,8.299 22,8.5 22,8.6L22,12C22,13.092 21.699,14.115 21.184,15L18.902,15C18.686,14.43 18.126,14 17.5,14L16.5,14C15.7,14 15,14.7 15,15.5C15,16.3 15.7,17 16.5,17L17.5,17C18.126,17 18.686,16.57 18.902,16L20.453,16C19.353,17.223 17.765,18 16,18C12.7,18 10,15.3 10,12L10,9.697C10.889,9.318 11.5,8.442 11.5,7.4L11.5,6.4ZM8.5,10L9,10L9,12L8.5,12C8.2,12 8,11.8 8,11.5L8,10.5C8,10.2 8.2,10 8.5,10ZM23,10L23.5,10C23.678,10 23.814,10.076 23.9,10.195L23.9,12L23,12L23,10ZM8,12.902C8.158,12.962 8.326,13 8.5,13L9.078,13C9.356,14.981 10.439,16.681 12,17.76L12,18.826C11,18.715 10,18.551 9,18.301L8,18.1L8,12.902ZM22.922,13L23.9,13L23.9,13.172C23.692,13.938 23.143,14.548 22.412,14.828C22.661,14.256 22.832,13.643 22.922,13ZM16.5,15L17.5,15C17.8,15 18,15.2 18,15.5C18,15.8 17.8,16 17.5,16L16.5,16C16.2,16 16,15.8 16,15.5C16,15.2 16.2,15 16.5,15ZM23.9,15.014L23.9,18.1L22.9,18.301C21.934,18.564 20.967,18.737 20,18.846L20,17.76C20.698,17.277 21.302,16.671 21.781,15.971C22.592,15.902 23.334,15.555 23.9,15.014ZM13,18.33C13.908,18.756 14.921,19 16,19C17.079,19 18.092,18.756 19,18.33L19,20C19,21.2 17,22.4 16,22.9C15,22.5 13,21.2 13,20L13,19.5C13.032,19.403 13.024,19.31 13,19.223L13,18.33ZM12.135,21.092L14.836,31L12.734,31L11.301,26.699L11.801,26C11.901,25.9 11.9,25.7 11.9,25.6C11.9,25.5 11.799,25.401 11.699,25.301L10.5,24.4L9.701,21.918L12.135,21.092ZM19.758,21.146L21.766,21.793L20.9,24.301L19.699,25.199C19.599,25.299 19.5,25.4 19.5,25.5C19.5,25.7 19.5,25.8 19.6,25.9L20.1,26.6L18.633,31L16.623,31L19.758,21.146ZM22.676,22.086L24.9,22.801C25.745,23.067 26.439,23.579 26.963,24.223C24.126,24.85 22,27.459 22,30.5L22,31L19.768,31L21.199,26.699C21.199,26.499 21.2,26.299 21.1,26.199L20.699,25.699L21.6,25C21.7,25 21.801,24.901 21.801,24.801L22.676,22.086ZM8.811,22.221L9.699,24.801L9.9,25L10.801,25.6L10.4,26.1C10.3,26.3 10.201,26.4 10.301,26.6L11.768,31L10,31L10,30.5C10,27.541 7.946,24.928 5.027,24.234C5.552,23.585 6.25,23.069 7.1,22.801L8.811,22.221ZM13.607,22.625C14.548,23.392 15.59,23.895 15.801,24L16.199,24C16.4,23.9 17.353,23.448 18.254,22.746L15.77,30.555L13.607,22.625ZM4.5,25.1C7.1,25.6 9,27.8 9,30.5L9,31L4,31L4,27.1C4,26.908 4.021,26.72 4.045,26.531C4.119,26.027 4.282,25.536 4.5,25.1ZM27.5,25.1C27.718,25.536 27.881,26.027 27.955,26.531C27.979,26.72 28,26.908 28,27.1L28,31L23,31L23,30.5C23,27.8 24.9,25.6 27.5,25.1Z" style="fill-rule:nonzero;"/>
    </g>
</svg>
