<?xml version="1.0" encoding="UTF-8" standalone="no"?>
<!DOCTYPE svg PUBLIC "-//W3C//DTD SVG 1.1//EN" "http://www.w3.org/Graphics/SVG/1.1/DTD/svg11.dtd">
<svg width="100%" height="100%" viewBox="0 0 200 200" version="1.1" xmlns="http://www.w3.org/2000/svg" xmlns:xlink="http://www.w3.org/1999/xlink" xml:space="preserve" style="fill-rule:evenodd;clip-rule:evenodd;stroke-linejoin:round;stroke-miterlimit:1.41421;">
    <g transform="matrix(2.66667,0,0,2.66667,14.6667,14.6667)">
        <path d="M56,32L56,2L48,2L47,2L40,2L39,2L8,2L8,32L2,32L2,62L62,62L62,32L56,32ZM54,4L54,32L48,32L48,4L54,4ZM46,4L46,32L43.4,32L40,38L40,4L46,4ZM10,4L38,4L38,39L24.6,39L21.7,34L34,34L34,32L20.6,32L14,32L10,32L10,4ZM60,60L4,60L4,34L19.4,34L23.4,41L40.6,41L44.6,34L60,34L60,60Z" style="fill-rule:nonzero;"/>
        <path d="M40,45L24,45C22.3,45 21,46.3 21,48C21,49.7 22.3,51 24,51L40,51C41.7,51 43,49.7 43,48C43,46.3 41.7,45 40,45ZM40,49L24,49C23.4,49 23,48.6 23,48C23,47.4 23.4,47 24,47L40,47C40.6,47 41,47.4 41,48C41,48.6 40.6,49 40,49Z" style="fill-rule:nonzero;"/>
        <g transform="matrix(0.375,0,0,0.375,-5.5,-5.5)">
            <path d="M105.333,84L105.333,89.333L52,89.333L52,84L105.333,84ZM52,68L105.333,68L105.333,73.333L52,73.333L52,68ZM52,52L105.333,52L105.333,57.333L52,57.333L52,52ZM52,36L105.333,36L105.333,41.333L52,41.333L52,36Z"/>
        </g>
    </g>
</svg>
