<?xml version="1.0" encoding="UTF-8" standalone="no"?>
<!DOCTYPE svg PUBLIC "-//W3C//DTD SVG 1.1//EN" "http://www.w3.org/Graphics/SVG/1.1/DTD/svg11.dtd">
<svg width="100%" height="100%" viewBox="0 0 200 200" version="1.1" xmlns="http://www.w3.org/2000/svg" xmlns:xlink="http://www.w3.org/1999/xlink" xml:space="preserve" style="fill-rule:evenodd;clip-rule:evenodd;stroke-linejoin:round;stroke-miterlimit:1.41421;">
    <g transform="matrix(1.08,0,0,1.08,13.6007,13.6003)">
        <path d="M99.305,123.313C99.303,123.295 99.304,123.277 99.301,123.259C99.274,123.06 99.225,122.867 99.166,122.678C99.15,122.628 99.133,122.578 99.115,122.528C99.044,122.333 98.961,122.144 98.858,121.965C98.856,121.962 98.855,121.958 98.853,121.954C98.846,121.942 98.836,121.933 98.829,121.921C98.729,121.755 98.614,121.6 98.487,121.452C98.454,121.413 98.422,121.375 98.388,121.338C98.254,121.194 98.11,121.06 97.952,120.939C97.919,120.914 97.883,120.893 97.849,120.869C97.767,120.811 97.687,120.751 97.599,120.7L81.767,111.441C80.675,110.803 79.325,110.803 78.233,111.441L62.401,120.7C62.311,120.753 62.229,120.814 62.145,120.874C62.114,120.896 62.081,120.915 62.051,120.938C61.891,121.06 61.746,121.195 61.611,121.34C61.578,121.376 61.547,121.413 61.515,121.451C61.388,121.599 61.271,121.756 61.171,121.922C61.164,121.934 61.154,121.943 61.147,121.954C61.145,121.957 61.144,121.961 61.142,121.965C61.038,122.144 60.956,122.333 60.885,122.528C60.867,122.578 60.85,122.628 60.834,122.678C60.775,122.867 60.726,123.06 60.699,123.259C60.697,123.277 60.697,123.295 60.695,123.313C60.679,123.448 60.668,123.585 60.668,123.723L60.668,142.241C60.668,143.485 61.328,144.635 62.401,145.262L78.233,154.521C78.349,154.589 78.469,154.646 78.591,154.699C78.611,154.708 78.629,154.72 78.649,154.728C78.835,154.806 79.026,154.861 79.22,154.905C79.273,154.917 79.325,154.927 79.379,154.937C79.585,154.974 79.792,155 80,155C80.208,155 80.415,154.974 80.621,154.937C80.675,154.927 80.727,154.917 80.78,154.905C80.974,154.861 81.165,154.805 81.351,154.728C81.371,154.72 81.389,154.708 81.409,154.699C81.53,154.646 81.651,154.589 81.767,154.521L97.599,145.262C98.672,144.634 99.332,143.484 99.332,142.241L99.332,123.723C99.332,123.585 99.32,123.449 99.305,123.313ZM67.668,129.826L76.5,134.993L76.5,145.398L67.668,140.233L67.668,129.826ZM83.5,145.398L83.5,134.993L92.332,129.826L92.332,140.233L83.5,145.398ZM80,118.519L88.9,123.724L80,128.931L71.1,123.724L80,118.519ZM33.73,84.472C34.322,84.482 34.911,84.641 35.44,84.951L51.272,94.21C51.357,94.26 51.435,94.319 51.515,94.375C51.552,94.401 51.59,94.423 51.626,94.45C51.784,94.57 51.927,94.704 52.06,94.847C52.095,94.885 52.127,94.925 52.161,94.964C52.286,95.111 52.401,95.265 52.5,95.429C52.508,95.442 52.518,95.452 52.526,95.465C52.528,95.469 52.529,95.473 52.531,95.477C52.634,95.655 52.716,95.844 52.787,96.038C52.805,96.088 52.822,96.138 52.838,96.189C52.897,96.378 52.947,96.571 52.973,96.77C52.976,96.789 52.975,96.807 52.977,96.825C52.993,96.959 53.004,97.095 53.004,97.232L53.004,113.669L60.518,117.758C60.401,117.831 60.288,117.902 60.148,118.001L59.934,118.153C59.624,118.388 59.325,118.66 59.049,118.957C58.986,119.025 58.926,119.094 58.859,119.173C58.664,119.4 58.484,119.637 58.313,119.897L57.97,120.475C57.831,120.743 57.706,121.03 57.591,121.347C57.555,121.448 57.521,121.549 57.494,121.636C57.367,122.041 57.281,122.419 57.231,122.792L57.205,123.043C57.182,123.268 57.169,123.495 57.169,123.724L57.169,123.902L49.567,119.769L35.44,128.031C35.326,128.097 35.207,128.153 35.088,128.206C35.066,128.216 35.046,128.23 35.023,128.239C34.837,128.317 34.646,128.372 34.453,128.416C34.401,128.428 34.348,128.438 34.294,128.448C34.088,128.486 33.881,128.511 33.673,128.511C33.465,128.511 33.258,128.485 33.052,128.448C32.999,128.438 32.946,128.428 32.893,128.416C32.699,128.372 32.508,128.317 32.323,128.239C32.317,128.236 32.312,128.234 32.307,128.231L32.274,128.214C32.269,128.211 32.263,128.208 32.258,128.206C32.139,128.153 32.02,128.098 31.906,128.031L16.074,118.772C15.001,118.145 14.341,116.995 14.341,115.751L14.341,97.233C14.341,97.096 14.352,96.96 14.368,96.826C14.37,96.807 14.37,96.789 14.372,96.771C14.399,96.572 14.448,96.379 14.507,96.19C14.523,96.139 14.541,96.089 14.559,96.038C14.629,95.844 14.712,95.655 14.815,95.477C14.817,95.473 14.818,95.469 14.82,95.465C14.828,95.452 14.838,95.442 14.846,95.429C14.945,95.264 15.06,95.109 15.186,94.962C15.219,94.924 15.25,94.885 15.284,94.849C15.418,94.704 15.563,94.569 15.722,94.448C15.754,94.424 15.788,94.405 15.82,94.382C15.903,94.323 15.985,94.262 16.074,94.21L31.906,84.951C32.452,84.631 33.063,84.472 33.673,84.472L33.73,84.472ZM145.633,96.825C145.631,96.807 145.632,96.789 145.629,96.77C145.603,96.571 145.553,96.378 145.494,96.189C145.478,96.138 145.461,96.088 145.443,96.038C145.372,95.844 145.29,95.655 145.187,95.477C145.185,95.473 145.184,95.469 145.182,95.465C145.174,95.452 145.164,95.442 145.156,95.429C145.057,95.265 144.942,95.111 144.817,94.964C144.783,94.925 144.751,94.885 144.716,94.847C144.583,94.704 144.44,94.57 144.282,94.45C144.246,94.423 144.208,94.401 144.172,94.375C144.092,94.319 144.014,94.26 143.928,94.21L128.096,84.95C127.004,84.312 125.654,84.312 124.562,84.95L108.73,94.209C108.64,94.261 108.558,94.322 108.475,94.382C108.443,94.404 108.41,94.423 108.379,94.447C108.219,94.568 108.074,94.704 107.939,94.849C107.906,94.885 107.874,94.923 107.842,94.961C107.716,95.108 107.6,95.263 107.501,95.429C107.493,95.442 107.483,95.452 107.475,95.465C107.473,95.469 107.472,95.473 107.47,95.477C107.367,95.655 107.284,95.844 107.214,96.038C107.196,96.089 107.178,96.139 107.162,96.19C107.103,96.379 107.054,96.572 107.027,96.771C107.025,96.789 107.025,96.807 107.023,96.826C107.007,96.96 106.996,97.096 106.996,97.233L106.996,113.67L99.48,117.756C99.6,117.831 99.719,117.907 99.832,117.988L100.077,118.161C100.38,118.392 100.676,118.661 100.952,118.958C101.004,119.013 101.075,119.093 101.145,119.176C101.344,119.409 101.519,119.64 101.676,119.878L101.745,119.963L102.026,120.467C102.162,120.729 102.288,121.017 102.402,121.33C102.443,121.444 102.476,121.541 102.506,121.64C102.63,122.034 102.716,122.413 102.767,122.791L102.793,123.034C102.816,123.262 102.83,123.491 102.83,123.723L102.83,123.901L110.432,119.768L124.559,128.03C124.673,128.097 124.792,128.152 124.911,128.205C124.933,128.215 124.954,128.228 124.976,128.238C125.161,128.316 125.352,128.371 125.546,128.415C125.599,128.427 125.652,128.437 125.705,128.447C125.911,128.484 126.118,128.51 126.326,128.51C126.534,128.51 126.741,128.484 126.947,128.447C127.001,128.437 127.053,128.427 127.106,128.415C127.3,128.371 127.491,128.315 127.677,128.238C127.697,128.23 127.715,128.218 127.735,128.209C127.856,128.156 127.977,128.099 128.093,128.031L143.925,118.771C144.998,118.144 145.658,116.994 145.658,115.75L145.658,97.232C145.66,97.095 145.648,96.96 145.633,96.825ZM113.996,103.334L113.996,113.743L122.828,118.908L122.828,108.499L113.996,103.334ZM21.341,103.334L30.173,108.499L30.173,118.908L21.341,113.743L21.341,103.334ZM129.828,118.908L129.828,108.5L138.66,103.335L138.66,113.743L129.828,118.908ZM37.172,118.908L37.172,108.5L46.004,103.335L46.004,113.743L37.172,118.908ZM99.332,87.179L99.332,70.741C99.332,70.604 99.321,70.468 99.305,70.334C99.303,70.316 99.304,70.298 99.301,70.279C99.275,70.08 99.225,69.887 99.166,69.698C99.15,69.647 99.133,69.597 99.115,69.547C99.044,69.353 98.962,69.164 98.859,68.986C98.857,68.982 98.856,68.978 98.854,68.975C98.846,68.962 98.836,68.952 98.828,68.94C98.729,68.775 98.614,68.621 98.488,68.474C98.455,68.435 98.423,68.396 98.388,68.359C98.254,68.216 98.111,68.081 97.953,67.961C97.919,67.935 97.882,67.914 97.847,67.889C97.766,67.832 97.686,67.772 97.6,67.722L81.768,58.463C80.676,57.825 79.326,57.825 78.234,58.463L62.401,67.72C62.31,67.773 62.227,67.835 62.142,67.895C62.112,67.916 62.08,67.934 62.051,67.957C61.891,68.079 61.746,68.214 61.61,68.36C61.577,68.396 61.546,68.434 61.514,68.471C61.388,68.619 61.272,68.774 61.172,68.94C61.164,68.953 61.154,68.962 61.147,68.975C61.145,68.979 61.144,68.983 61.142,68.986C61.039,69.164 60.956,69.353 60.886,69.547C60.868,69.598 60.85,69.648 60.834,69.699C60.775,69.888 60.726,70.081 60.699,70.28C60.697,70.298 60.697,70.316 60.695,70.335C60.679,70.469 60.668,70.605 60.668,70.742L60.668,87.179L53.152,91.266C53.267,91.337 53.381,91.41 53.492,91.489L53.779,91.694C54.05,91.899 54.338,92.161 54.62,92.464C54.683,92.532 54.748,92.606 54.812,92.682C55.017,92.922 55.193,93.155 55.351,93.393L55.628,93.846C55.797,94.153 55.944,94.48 56.076,94.842C56.116,94.952 56.147,95.046 56.178,95.142C56.307,95.556 56.394,95.937 56.444,96.313L56.469,96.565C56.493,96.808 56.505,97.02 56.505,97.234L56.505,97.412L64.106,93.279L76.501,100.528L76.501,108.406C78.665,107.158 81.339,107.158 83.501,108.406L83.501,100.528L95.896,93.279L103.495,97.411L103.495,97.233C103.495,97.003 103.515,96.783 103.535,96.553L103.555,96.313C103.605,95.943 103.695,95.553 103.825,95.153L103.915,94.863C104.055,94.483 104.205,94.153 104.375,93.843L104.635,93.413C104.785,93.183 104.975,92.933 105.185,92.693L105.365,92.483C105.655,92.173 105.955,91.903 106.265,91.663L106.485,91.503C106.622,91.412 106.735,91.34 106.85,91.267L99.332,87.179ZM126.328,92.028L135.227,97.232L126.328,102.436L117.43,97.232L126.328,92.028ZM33.672,92.028L42.57,97.232L33.672,102.436L24.774,97.232L33.672,92.028ZM67.668,76.843L76.5,82.008L76.5,92.416L67.668,87.251L67.668,76.843ZM83.5,92.416L83.5,82.008L92.332,76.843L92.332,87.251L83.5,92.416ZM33.73,31.492C34.321,31.502 34.911,31.661 35.439,31.97L51.271,41.229C51.362,41.282 51.445,41.344 51.53,41.404C51.561,41.425 51.592,41.443 51.622,41.466C51.782,41.588 51.928,41.724 52.063,41.869C52.096,41.904 52.126,41.941 52.158,41.978C52.286,42.128 52.404,42.286 52.505,42.455C52.511,42.465 52.519,42.473 52.525,42.483C52.527,42.486 52.527,42.489 52.529,42.492C52.634,42.672 52.717,42.862 52.788,43.058C52.806,43.107 52.822,43.156 52.838,43.205C52.898,43.395 52.947,43.59 52.974,43.79C52.975,43.794 52.975,43.798 52.975,43.802L52.976,43.826C52.976,43.83 52.976,43.834 52.977,43.838C52.993,43.974 53.004,44.111 53.004,44.25L53.004,60.688L60.52,64.774C60.401,64.848 60.287,64.92 60.149,65.018L59.93,65.173C59.621,65.409 59.323,65.68 59.067,65.956C58.998,66.03 58.931,66.106 58.853,66.198C58.653,66.431 58.478,66.664 58.32,66.903L57.971,67.49C57.831,67.758 57.708,68.041 57.598,68.345C57.563,68.444 57.53,68.541 57.493,68.656C57.365,69.065 57.279,69.446 57.229,69.823L57.205,70.057C57.182,70.283 57.168,70.511 57.168,70.742L57.168,70.92L49.566,66.787L37.172,74.036L37.172,81.915C35.009,80.665 32.335,80.665 30.172,81.915L30.172,74.036L16.073,65.79C15,65.163 14.34,64.013 14.34,62.769L14.34,44.251C14.34,44.112 14.351,43.975 14.367,43.839C14.369,43.823 14.368,43.807 14.37,43.791C14.397,43.591 14.446,43.396 14.506,43.206C14.522,43.156 14.538,43.108 14.556,43.059C14.627,42.863 14.711,42.673 14.815,42.493C14.817,42.49 14.817,42.487 14.819,42.484C14.825,42.474 14.833,42.466 14.839,42.456C14.941,42.286 15.06,42.127 15.189,41.976C15.219,41.941 15.248,41.905 15.28,41.871C15.416,41.724 15.563,41.588 15.724,41.465C15.752,41.444 15.782,41.427 15.81,41.407C15.896,41.346 15.981,41.283 16.073,41.229L31.905,31.97C32.451,31.651 33.062,31.491 33.672,31.491L33.73,31.492ZM145.632,43.838C145.63,43.822 145.631,43.806 145.629,43.79C145.602,43.589 145.553,43.395 145.493,43.204C145.478,43.155 145.461,43.107 145.443,43.058C145.372,42.862 145.288,42.671 145.184,42.492C145.182,42.489 145.182,42.486 145.18,42.483C145.174,42.473 145.166,42.465 145.16,42.455C145.059,42.286 144.941,42.128 144.812,41.978C144.78,41.941 144.75,41.904 144.717,41.868C144.582,41.723 144.437,41.587 144.277,41.466C144.245,41.442 144.211,41.422 144.179,41.4C144.096,41.341 144.014,41.28 143.926,41.228L128.094,31.969C127.002,31.331 125.652,31.331 124.56,31.969L108.728,41.228C108.636,41.282 108.551,41.345 108.465,41.406C108.437,41.426 108.407,41.443 108.38,41.464C108.219,41.586 108.072,41.723 107.936,41.87C107.904,41.904 107.874,41.941 107.844,41.976C107.715,42.127 107.596,42.285 107.495,42.455C107.489,42.465 107.481,42.473 107.475,42.483C107.473,42.486 107.473,42.489 107.471,42.492C107.367,42.671 107.283,42.862 107.212,43.058C107.194,43.107 107.178,43.156 107.162,43.205C107.102,43.395 107.053,43.589 107.026,43.79C107.024,43.806 107.025,43.822 107.023,43.838C107.007,43.974 106.996,44.111 106.996,44.25L106.996,60.687L99.48,64.773C99.597,64.846 99.713,64.92 99.825,64.999L100.065,65.167C100.382,65.409 100.668,65.669 100.948,65.97C101.02,66.047 101.091,66.13 101.161,66.214C101.348,66.432 101.518,66.658 101.673,66.892L102.027,67.487C102.166,67.755 102.289,68.039 102.402,68.347C102.442,68.457 102.473,68.551 102.504,68.647C102.633,69.061 102.72,69.442 102.77,69.818L102.793,70.044C102.816,70.262 102.831,70.5 102.831,70.74L102.831,70.918L110.433,66.785L122.827,74.034L122.827,81.913C124.99,80.669 127.664,80.669 129.827,81.912L129.827,74.034L143.926,65.788C144.999,65.161 145.659,64.011 145.659,62.767L145.659,44.25C145.66,44.111 145.649,43.974 145.632,43.838ZM80,65.537L88.898,70.741L80,75.945L71.102,70.741L80,65.537ZM30.172,65.926L21.34,60.76L21.34,50.352L30.172,55.518L30.172,65.926ZM113.996,50.352L113.996,60.761L122.828,65.926L122.828,55.517L113.996,50.352ZM129.828,65.926L129.828,55.517L138.66,50.351L138.66,60.76L129.828,65.926ZM46.004,60.76L37.172,65.925L37.172,55.517L46.004,50.352L46.004,60.76ZM80.057,5C80.649,5.01 81.238,5.169 81.767,5.479L97.599,14.739C97.685,14.789 97.763,14.848 97.844,14.905C97.881,14.93 97.919,14.952 97.954,14.979C98.112,15.099 98.255,15.234 98.389,15.377C98.423,15.414 98.455,15.452 98.488,15.491C98.615,15.639 98.731,15.795 98.831,15.962C98.838,15.973 98.847,15.982 98.854,15.993C98.856,15.996 98.857,16 98.859,16.003C98.963,16.182 99.046,16.372 99.117,16.567C99.135,16.616 99.151,16.665 99.167,16.715C99.226,16.905 99.276,17.099 99.302,17.299C99.304,17.316 99.303,17.333 99.305,17.35C99.321,17.485 99.332,17.621 99.332,17.759L99.332,34.197L106.848,38.284C106.725,38.361 106.604,38.437 106.471,38.532L106.267,38.676C105.955,38.912 105.655,39.185 105.371,39.49C105.313,39.552 105.257,39.617 105.186,39.7C104.99,39.928 104.817,40.156 104.647,40.414L104.375,40.857C104.202,41.17 104.054,41.499 103.929,41.844C103.891,41.948 103.856,42.052 103.822,42.158C103.694,42.565 103.607,42.946 103.551,43.368L103.53,43.588C103.509,43.807 103.496,44.028 103.496,44.25L103.496,44.428L95.895,40.295L83.5,47.544L83.5,55.422C81.338,54.174 78.664,54.174 76.5,55.422L76.5,47.544L64.104,40.294L56.503,44.427L56.503,44.249C56.503,44.027 56.49,43.805 56.468,43.582L56.442,43.324C56.39,42.944 56.303,42.56 56.182,42.177C56.148,42.065 56.11,41.953 56.078,41.867C55.946,41.501 55.796,41.169 55.624,40.856L55.352,40.412C55.192,40.169 55.013,39.933 54.805,39.69C54.746,39.62 54.686,39.551 54.625,39.486C54.347,39.187 54.049,38.916 53.728,38.671C53.644,38.607 53.558,38.548 53.544,38.542C53.418,38.452 53.286,38.367 53.152,38.283L60.668,34.197L60.668,17.76C60.668,17.622 60.679,17.486 60.695,17.351C60.695,17.347 60.696,17.343 60.696,17.338L60.697,17.313C60.697,17.309 60.697,17.304 60.698,17.3C60.724,17.1 60.773,16.906 60.833,16.716C60.849,16.666 60.866,16.617 60.884,16.567C60.955,16.372 61.038,16.182 61.142,16.003C61.144,16 61.145,15.996 61.147,15.993C61.154,15.982 61.163,15.973 61.17,15.962C61.27,15.795 61.386,15.64 61.512,15.492C61.546,15.452 61.578,15.413 61.613,15.375C61.745,15.232 61.888,15.099 62.045,14.979C62.082,14.95 62.122,14.928 62.16,14.901C62.239,14.846 62.316,14.787 62.401,14.738L78.233,5.479C78.779,5.159 79.39,5 80,5L80.057,5ZM33.673,49.455L24.774,44.25L33.673,39.046L42.572,44.25L33.673,49.455ZM126.328,39.046L135.227,44.25L126.328,49.455L117.429,44.251L126.328,39.046ZM67.668,23.86L76.5,29.023L76.5,39.435L67.668,34.27L67.668,23.86ZM83.5,39.435L83.5,29.022L92.332,23.859L92.332,34.269L83.5,39.435ZM80,12.555L88.898,17.759L80,22.96L71.102,17.759L80,12.555Z"/>
    </g>
</svg>
