<?xml version="1.0" encoding="UTF-8" standalone="no"?>
<!DOCTYPE svg PUBLIC "-//W3C//DTD SVG 1.1//EN" "http://www.w3.org/Graphics/SVG/1.1/DTD/svg11.dtd">
<svg width="100%" height="100%" viewBox="0 0 200 200" version="1.1" xmlns="http://www.w3.org/2000/svg" xmlns:xlink="http://www.w3.org/1999/xlink" xml:space="preserve" style="fill-rule:evenodd;clip-rule:evenodd;stroke-linejoin:round;stroke-miterlimit:1.41421;">
    <g transform="matrix(1.8244,0,0,1.8244,8.68871,0.843786)">
        <path d="M91.9,44.8L83.9,25.5C83.5,24.6 82.7,24 81.7,24L66.3,24L66.3,15.9C66.3,14.6 65.2,13.5 63.9,13.5L36.1,13.5C34.8,13.5 33.7,14.6 33.7,15.9L33.7,24L18.4,24C17.4,24 16.6,24.6 16.2,25.5L8.2,44.7C6.9,47.9 6.2,51.3 6.2,54.8L6.2,92.8C6.2,94.1 7.3,95.2 8.6,95.2L91.5,95.2C92.8,95.2 93.9,94.1 93.9,92.8L93.9,54.8C93.8,51.3 93.2,47.9 91.9,44.8ZM38.4,18.3L61.5,18.3L61.5,35L38.4,35L38.4,18.3ZM20,28.7L33.7,28.7L33.7,35L33.3,35C32,35 30.9,36.1 30.9,37.4C30.9,38.7 32,39.8 33.3,39.8L66.8,39.8C68.1,39.8 69.2,38.7 69.2,37.4C69.2,36.1 68.1,35 66.8,35L66.4,35L66.4,28.8L80.2,28.8L87.5,46.6C87.6,47 87.8,47.3 87.9,47.7L12.2,47.7C12.3,47.3 12.4,47 12.6,46.6L20,28.7ZM89.1,90.4L10.9,90.4L10.9,54.8C10.9,54 11,53.2 11,52.4L89,52.4C89.1,53.2 89.1,53.9 89.1,54.7L89.1,90.4ZM58.3,23.4C58.3,24.1 57.8,24.6 57.1,24.6L42.9,24.6C42.2,24.6 41.7,24.1 41.7,23.4C41.7,22.7 42.2,22.2 42.9,22.2L57.2,22.2C57.8,22.2 58.3,22.7 58.3,23.4ZM58.3,29.4C58.3,30.1 57.8,30.6 57.1,30.6L42.9,30.6C42.2,30.6 41.7,30.1 41.7,29.4C41.7,28.7 42.2,28.2 42.9,28.2L57.2,28.2C57.8,28.2 58.3,28.7 58.3,29.4Z" style="fill-rule:nonzero;"/>
    </g>
</svg>
