<?xml version="1.0" encoding="UTF-8" standalone="no"?>
<!DOCTYPE svg PUBLIC "-//W3C//DTD SVG 1.1//EN" "http://www.w3.org/Graphics/SVG/1.1/DTD/svg11.dtd">
<svg width="100%" height="100%" viewBox="0 0 200 200" version="1.1" xmlns="http://www.w3.org/2000/svg" xmlns:xlink="http://www.w3.org/1999/xlink" xml:space="preserve" style="fill-rule:evenodd;clip-rule:evenodd;stroke-linejoin:round;stroke-miterlimit:1.41421;">
    <g transform="matrix(2.66667,0,0,2.66667,20,20)">
        <path d="M55,9C57.743,9 60,11.257 60,14L60,46C60,48.743 57.743,51 55,51L5,51C2.257,51 0,48.743 0,46L0,14C0,11.257 2.257,9 5,9L55,9ZM55,11L5,11C3.354,11 2,12.354 2,14L2,46C2,47.646 3.354,49 5,49L55,49C56.646,49 58,47.646 58,46L58,14C58,12.354 56.646,11 55,11ZM51,14C53.194,14 55,15.806 55,18L55,42.44C54.776,44.466 53.038,46.012 51,46L33,46C30.962,46.012 29.224,44.466 29,42.44C28.998,42.403 28.998,42.367 29,42.33C28.993,42.22 28.993,42.11 29,42L29,18C29,15.806 30.806,14 33,14L51,14ZM51.55,43.93L51.78,43.87L51.91,43.81L52.09,43.72L52.22,43.63L52.37,43.52L52.48,43.4L52.61,43.26L52.7,43.12L52.8,42.97C52.87,42.92 52.8,42.87 52.87,42.81C52.94,42.75 52.94,42.7 52.94,42.64C52.94,42.58 52.94,42.52 52.94,42.46C53,42.4 53,42.34 53,42.28C52.723,38.08 50.06,34.393 46.16,32.81C46.05,32.87 45.94,32.92 45.83,32.98L45.34,33.24L44.88,33.43C44.65,33.52 44.42,33.6 44.18,33.67L44.02,33.67C42.693,34.046 41.287,34.046 39.96,33.67L39.76,33.67C39.54,33.61 39.32,33.53 39.1,33.44L38.61,33.24L38.14,33C38.03,32.93 37.91,32.89 37.8,32.82C33.916,34.415 31.269,38.1 31,42.29C31.1,43.043 31.621,43.676 32.34,43.92L32.63,44C32.753,44.011 32.877,44.011 33,44L51,44C51.145,43.992 51.29,43.969 51.43,43.93L51.55,43.93ZM51,16L33,16C31.903,16 31,16.903 31,18L31,36.08C32.251,34.082 34.025,32.463 36.13,31.4C34.764,29.922 34.005,27.982 34.005,25.97C34.005,21.581 37.616,17.97 42.005,17.97C46.394,17.97 50.005,21.581 50.005,25.97C50.005,27.982 49.246,29.922 47.88,31.4C49.989,32.453 51.762,34.074 53,36.08L53,18C53,16.903 52.097,16 51,16ZM36,26C36,25.998 36,25.997 36,25.995C36,22.704 38.708,19.995 42,19.995C45.292,19.995 48,22.704 48,25.995C48,27.939 47.056,29.766 45.47,30.89C43.933,31.964 41.981,32.267 40.19,31.71C39.596,31.528 39.036,31.251 38.53,30.89C36.946,29.767 36.002,27.942 36,26ZM25,25C25.549,25 26,25.451 26,26C26,26.549 25.549,27 25,27L6,27C5.451,27 5,26.549 5,26C5,25.451 5.451,25 6,25L25,25ZM25,21C25.549,21 26,21.451 26,22C26,22.549 25.549,23 25,23L6,23C5.451,23 5,22.549 5,22C5,21.451 5.451,21 6,21L25,21ZM25,17C25.549,17 26,17.451 26,18C26,18.549 25.549,19 25,19L6,19C5.451,19 5,18.549 5,18C5,17.451 5.451,17 6,17L25,17Z"/>
    </g>
</svg>
