<?xml version="1.0" encoding="UTF-8" standalone="no"?>
<!DOCTYPE svg PUBLIC "-//W3C//DTD SVG 1.1//EN" "http://www.w3.org/Graphics/SVG/1.1/DTD/svg11.dtd">
<svg width="100%" height="100%" viewBox="0 0 200 200" version="1.1" xmlns="http://www.w3.org/2000/svg" xmlns:xlink="http://www.w3.org/1999/xlink" xml:space="preserve" style="fill-rule:evenodd;clip-rule:evenodd;stroke-linejoin:round;stroke-miterlimit:1.41421;">
    <g transform="matrix(1.84068,0,0,1.84068,7.96725,7.95999)">
        <path d="M18.813,6C17.787,6.097 16.996,6.97 17,8L17,16.344L10.5,18.063C9.619,18.289 8.999,19.09 8.999,19.999C8.999,20.168 9.02,20.337 9.063,20.5L16.656,50.5C16.721,50.76 16.838,51.005 17,51.219L17,83C17,84.097 17.903,85 19,85L26.188,85L28.063,92.5C28.287,93.385 29.089,94.009 30.001,94.009C30.18,94.009 30.359,93.985 30.531,93.938L62.875,85.125C63.004,85.096 63.129,85.054 63.25,85L79,85C80.097,85 81,84.097 81,83L81,77L85,77C86.097,77 87,76.097 87,75L87,73L89,73C90.097,73 91,72.097 91,71L91,63.844C91,57.232 86.612,51.644 80.594,49.719C83.225,48.143 85,45.271 85,42C85,38.893 83.415,36.119 81,34.5L81,24C80.996,23.471 80.782,22.965 80.406,22.594L64.406,6.594C64.035,6.218 63.529,6.004 63,6L19,6C18.938,5.997 18.875,5.997 18.813,6ZM21,10L61,10L61,24C61,25.097 61.903,26 63,26L77,26L77,33.063C76.668,33.025 76.342,33 76,33C71.053,33 67,37.053 67,42C67,45.271 68.775,48.143 71.406,49.719C65.388,51.644 61,57.232 61,63.844L61,71C61,72.097 61.903,73 63,73L65,73L65,75C65,76.097 65.903,77 67,77L77,77L77,81L21,81L21,10ZM65,12.813L74.188,22L65,22L65,12.813ZM17,20.5L17,35.531L13.438,21.438L17,20.5ZM28.813,30C27.75,30.05 26.904,30.937 26.904,32C26.904,33.098 27.807,34.002 28.906,34.002C28.937,34.002 28.969,34.001 29,34L49,34C49.009,34 49.019,34 49.028,34C50.126,34 51.028,33.097 51.028,32C51.028,30.903 50.126,30 49.028,30C49.019,30 49.009,30 49,30L29,30C28.938,29.997 28.875,29.997 28.813,30ZM76,37C78.785,37 81,39.215 81,42C81,44.785 78.785,47 76,47C73.215,47 71,44.785 71,42C71,39.215 73.215,37 76,37ZM28.813,39C27.75,39.05 26.904,39.937 26.904,41C26.904,42.098 27.807,43.002 28.906,43.002C28.937,43.002 28.969,43.001 29,43L59,43C59.009,43 59.019,43 59.028,43C60.126,43 61.028,42.097 61.028,41C61.028,39.903 60.126,39 59.028,39C59.019,39 59.009,39 59,39L29,39C28.938,38.997 28.875,38.997 28.813,39ZM28.813,48C27.75,48.05 26.904,48.937 26.904,50C26.904,51.098 27.807,52.002 28.906,52.002C28.937,52.002 28.969,52.001 29,52L59,52C59.009,52 59.019,52 59.028,52C60.126,52 61.028,51.097 61.028,50C61.028,48.903 60.126,48 59.028,48C59.019,48 59.009,48 59,48L29,48C28.938,47.997 28.875,47.997 28.813,48ZM76,53C82.14,53 87,57.806 87,63.844L87,69L85,69C83.903,69 83,69.903 83,71L83,73L69,73L69,71C69,69.903 68.097,69 67,69L65,69L65,63.844C65,57.806 69.86,53 76,53ZM28.813,57C27.75,57.05 26.904,57.937 26.904,59C26.904,60.098 27.807,61.002 28.906,61.002C28.937,61.002 28.969,61.001 29,61L49,61C49.009,61 49.019,61 49.028,61C50.126,61 51.028,60.097 51.028,59C51.028,57.903 50.126,57 49.028,57C49.019,57 49.009,57 49,57L29,57C28.938,56.997 28.875,56.997 28.813,57ZM30.313,85L48.063,85L31.438,89.531L30.313,85Z" style="fill-rule:nonzero;"/>
    </g>
</svg>
