<?xml version="1.0" encoding="UTF-8" standalone="no"?>
<!DOCTYPE svg PUBLIC "-//W3C//DTD SVG 1.1//EN" "http://www.w3.org/Graphics/SVG/1.1/DTD/svg11.dtd">
<svg width="100%" height="100%" viewBox="0 0 200 200" version="1.1" xmlns="http://www.w3.org/2000/svg" xmlns:xlink="http://www.w3.org/1999/xlink" xml:space="preserve" style="fill-rule:evenodd;clip-rule:evenodd;stroke-linejoin:round;stroke-miterlimit:1.41421;">
    <g id="appmanage" transform="matrix(2.53125,0,0,2.53125,-26.5625,-26.5625)">
        <path d="M38,82L62,82C65.3,82 68,79.3 68,76L68,24C68,20.7 65.3,18 62,18L38,18C34.7,18 32,20.7 32,24L32,76C32,79.3 34.7,82 38,82ZM34,24C34,21.8 35.8,20 38,20L62,20C64.2,20 66,21.8 66,24L66,26L34,26L34,24ZM34,28L66,28L66,72L34,72L34,28ZM34,74L66,74L66,76C66,78.2 64.2,80 62,80L38,80C35.8,80 34,78.2 34,76L34,74Z" style="fill-rule:nonzero;"/>
        <path d="M46,78L54,78C54.6,78 55,77.6 55,77C55,76.4 54.6,76 54,76L46,76C45.4,76 45,76.4 45,77C45,77.6 45.4,78 46,78Z" style="fill-rule:nonzero;"/>
        <g transform="matrix(0.926876,0,0,0.926876,30.5356,16.169)">
            <path d="M15,47C14.448,47 14,47.448 14,48L14,52C14,52.552 14.448,53 15,53C15.552,53 16,52.552 16,52L16,48C16,47.448 15.552,47 15,47Z" style="fill-rule:nonzero;"/>
        </g>
        <g transform="matrix(0.926876,0,0,0.926876,30.5356,16.169)">
            <path d="M27,47C26.448,47 26,47.448 26,48L26,52C26,52.552 26.448,53 27,53C27.552,53 28,52.552 28,52L28,48C28,47.448 27.552,47 27,47Z" style="fill-rule:nonzero;"/>
        </g>
        <g transform="matrix(0.926876,0,0,0.926876,30.5356,16.169)">
            <path d="M19,44C18.448,44 18,44.448 18,45L18,55C18,55.552 18.448,56 19,56C19.552,56 20,55.552 20,55L20,45C20,44.448 19.552,44 19,44Z" style="fill-rule:nonzero;"/>
        </g>
        <g transform="matrix(0.926876,0,0,0.926876,30.5356,16.169)">
            <path d="M23,44C22.448,44 22,44.448 22,45L22,55C22,55.552 22.448,56 23,56C23.552,56 24,55.552 24,55L24,45C24,44.448 23.552,44 23,44Z" style="fill-rule:nonzero;"/>
        </g>
        <g transform="matrix(5.67548e-17,0.926876,-0.926876,5.67548e-17,110.758,41.1947)">
            <path d="M23,46.131C22.448,46.131 22,46.579 22,47.131L22,55C22,55.552 22.448,56 23,56C23.552,56 24,55.552 24,55L24,47.131C24,46.579 23.552,46.131 23,46.131Z" style="fill-rule:nonzero;"/>
        </g>
        <g transform="matrix(5.67548e-17,0.926876,-0.926876,5.67548e-17,83.905,41.1947)">
            <path d="M23,46.131C22.448,46.131 22,46.579 22,47.131L22,55C22,55.552 22.448,56 23,56C23.552,56 24,55.552 24,55L24,47.131C24,46.579 23.552,46.131 23,46.131Z" style="fill-rule:nonzero;"/>
        </g>
        <g transform="matrix(0.926876,0,0,0.926876,30.5356,16.169)">
            <path d="M20,31L22,31C23.657,31 25,29.657 25,28L25,20C25,18.343 23.657,17 22,17L20,17C18.343,17 17,18.343 17,20L17,28C17,29.657 18.343,31 20,31ZM19,20C19,19.448 19.448,19 20,19L22,19C22.552,19 23,19.448 23,20L23,28C23,28.552 22.552,29 22,29L20,29C19.448,29 19,28.552 19,28L19,20Z" style="fill-rule:nonzero;"/>
        </g>
        <g transform="matrix(0.926876,0,0,0.926876,30.5356,16.169)">
            <path d="M23,38L22,38L22,35C25.864,34.995 28.995,31.864 29,28L29,26C29,25.448 28.552,25 28,25C27.448,25 27,25.448 27,26L27,28C26.997,30.76 24.76,32.997 22,33L20,33C17.24,32.997 15.003,30.76 15,28L15,26C15,25.448 14.552,25 14,25C13.448,25 13,25.448 13,26L13,28C13.005,31.864 16.136,34.995 20,35L20,38L19,38C18.448,38 18,38.448 18,39C18,39.552 18.448,40 19,40L23,40C23.552,40 24,39.552 24,39C24,38.448 23.552,38 23,38Z" style="fill-rule:nonzero;"/>
        </g>
    </g>
</svg>
