<?xml version="1.0" encoding="UTF-8" standalone="no"?>
<!DOCTYPE svg PUBLIC "-//W3C//DTD SVG 1.1//EN" "http://www.w3.org/Graphics/SVG/1.1/DTD/svg11.dtd">
<svg width="100%" height="100%" viewBox="0 0 200 200" version="1.1" xmlns="http://www.w3.org/2000/svg" xmlns:xlink="http://www.w3.org/1999/xlink" xml:space="preserve" style="fill-rule:evenodd;clip-rule:evenodd;stroke-linejoin:round;stroke-miterlimit:1.41421;">
    <g id="discovery" transform="matrix(1.95054,0,0,1.95054,2.44512,2.44512)">
        <path d="M15,9C11.711,9 9,11.711 9,15L9,41C9,44.289 11.711,47 15,47L41,47C44.289,47 47,44.289 47,41L47,15C47,11.711 44.289,9 41,9L15,9ZM59,9C55.711,9 53,11.711 53,15L53,41C53,44.289 55.711,47 59,47L85,47C88.289,47 91,44.289 91,41L91,15C91,11.711 88.289,9 85,9L59,9ZM15,13L41,13C42.143,13 43,13.857 43,15L43,41C43,42.143 42.143,43 41,43L15,43C13.857,43 13,42.143 13,41L13,15C13,13.857 13.857,13 15,13ZM59,13L85,13C86.143,13 87,13.857 87,15L87,41C87,42.143 86.143,43 85,43L59,43C57.857,43 57,42.143 57,41L57,15C57,13.857 57.857,13 59,13ZM71.781,52.969C70.756,53.081 69.978,53.969 70,55L70,70L55,70C54.938,69.997 54.875,69.997 54.813,70C53.75,70.05 52.904,70.937 52.904,72C52.904,73.098 53.807,74.002 54.906,74.002C54.937,74.002 54.969,74.001 55,74L70,74L70,89C70,89.009 70,89.019 70,89.028C70,90.126 70.903,91.028 72,91.028C73.097,91.028 74,90.126 74,89.028C74,89.019 74,89.009 74,89L74,74L89,74C89.009,74 89.019,74 89.028,74C90.126,74 91.028,73.097 91.028,72C91.028,70.903 90.126,70 89.028,70C89.019,70 89.009,70 89,70L74,70L74,55C74,54.986 74,54.971 74,54.957C74,53.86 73.098,52.957 72,52.957C71.927,52.957 71.854,52.961 71.781,52.969ZM15,53C11.711,53 9,55.711 9,59L9,85C9,88.289 11.711,91 15,91L41,91C44.289,91 47,88.289 47,85L47,59C47,55.711 44.289,53 41,53L15,53ZM15,57L41,57C42.143,57 43,57.857 43,59L43,85C43,86.143 42.143,87 41,87L15,87C13.857,87 13,86.143 13,85L13,59C13,57.857 13.857,57 15,57Z" style="fill-rule:nonzero;"/>
    </g>
</svg>
