<?xml version="1.0" encoding="UTF-8" standalone="no"?>
<!DOCTYPE svg PUBLIC "-//W3C//DTD SVG 1.1//EN" "http://www.w3.org/Graphics/SVG/1.1/DTD/svg11.dtd">
<svg width="100%" height="100%" viewBox="0 0 200 200" version="1.1" xmlns="http://www.w3.org/2000/svg" xmlns:xlink="http://www.w3.org/1999/xlink" xml:space="preserve" style="fill-rule:evenodd;clip-rule:evenodd;stroke-linejoin:round;stroke-miterlimit:1.41421;">
    <g id="appmanage" transform="matrix(2.53125,0,0,2.53125,-26.5625,-26.5625)">
        <path d="M38,82L62,82C65.3,82 68,79.3 68,76L68,24C68,20.7 65.3,18 62,18L38,18C34.7,18 32,20.7 32,24L32,76C32,79.3 34.7,82 38,82ZM34,24C34,21.8 35.8,20 38,20L62,20C64.2,20 66,21.8 66,24L66,26L34,26L34,24ZM34,28L66,28L66,72L34,72L34,28ZM34,74L66,74L66,76C66,78.2 64.2,80 62,80L38,80C35.8,80 34,78.2 34,76L34,74Z" style="fill-rule:nonzero;"/>
        <path d="M46,78L54,78C54.6,78 55,77.6 55,77C55,76.4 54.6,76 54,76L46,76C45.4,76 45,76.4 45,77C45,77.6 45.4,78 46,78Z" style="fill-rule:nonzero;"/>
        <path d="M46,31L40,31C38.9,31 38,31.9 38,33L38,39C38,40.1 38.9,41 40,41L46,41C47.1,41 48,40.1 48,39L48,33C48,31.9 47.1,31 46,31ZM46,39L40,39L40,33L46,33L46,39Z" style="fill-rule:nonzero;"/>
        <path d="M60,31L54,31C52.9,31 52,31.9 52,33L52,39C52,40.1 52.9,41 54,41L60,41C61.1,41 62,40.1 62,39L62,33C62,31.9 61.1,31 60,31ZM60,39L54,39L54,33L60,33L60,39Z" style="fill-rule:nonzero;"/>
        <path d="M46,45L40,45C38.9,45 38,45.9 38,47L38,53C38,54.1 38.9,55 40,55L46,55C47.1,55 48,54.1 48,53L48,47C48,45.9 47.1,45 46,45ZM46,53L40,53L40,47L46,47L46,53Z" style="fill-rule:nonzero;"/>
        <path d="M60,45L54,45C52.9,45 52,45.9 52,47L52,53C52,54.1 52.9,55 54,55L60,55C61.1,55 62,54.1 62,53L62,47C62,45.9 61.1,45 60,45ZM60,53L54,53L54,47L60,47L60,53Z" style="fill-rule:nonzero;"/>
        <path d="M46,59L40,59C38.9,59 38,59.9 38,61L38,67C38,68.1 38.9,69 40,69L46,69C47.1,69 48,68.1 48,67L48,61C48,59.9 47.1,59 46,59ZM46,67L40,67L40,61L46,61L46,67Z" style="fill-rule:nonzero;"/>
        <path d="M59.3,64.3L58,65.6L58,60C58,59.4 57.6,59 57,59C56.4,59 56,59.4 56,60L56,65.6L54.7,64.3C54.3,63.9 53.7,63.9 53.3,64.3C52.9,64.7 52.9,65.3 53.3,65.7L56.3,68.7C56.4,68.8 56.5,68.9 56.6,68.9C56.7,69 56.9,69 57,69C57.1,69 57.3,69 57.4,68.9C57.5,68.8 57.6,68.8 57.7,68.7L60.7,65.7C61.1,65.3 61.1,64.7 60.7,64.3C60.3,63.9 59.7,63.9 59.3,64.3Z" style="fill-rule:nonzero;"/>
    </g>
</svg>
