<?xml version="1.0" encoding="UTF-8" standalone="no"?>
<!DOCTYPE svg PUBLIC "-//W3C//DTD SVG 1.1//EN" "http://www.w3.org/Graphics/SVG/1.1/DTD/svg11.dtd">
<svg width="100%" height="100%" viewBox="0 0 200 200" version="1.1" xmlns="http://www.w3.org/2000/svg" xmlns:xlink="http://www.w3.org/1999/xlink" xml:space="preserve" style="fill-rule:evenodd;clip-rule:evenodd;stroke-linejoin:round;stroke-miterlimit:1.41421;">
    <g id="wallet" transform="matrix(1.375,0,0,1.375,12,12)">
        <path d="M124,49.076L124,23C124,18.6 120.4,15 116,15L8,15C3.6,15 0,18.6 0,23L0,105C0,109.4 3.6,113 8,113L116,113C120.4,113 124,109.4 124,105L124,78.924C126.544,77.427 128,74.519 128,71.174L128,56.828C128,53.483 126.544,50.574 124,49.076ZM79,35C80.103,35 81,35.897 81,37C81,38.102 80.103,39 79,39C77.897,39 77,38.102 77,37C77,35.897 77.897,35 79,35ZM62,28C63.103,28 64,28.897 64,30C64,31.102 63.103,32 62,32C60.897,32 60,31.102 60,30C60,28.897 60.897,28 62,28ZM77,90C75.897,90 75,89.102 75,88C75,86.897 75.897,86 77,86C78.103,86 79,86.897 79,88C79,89.102 78.103,90 77,90ZM120,105C120,107.206 118.206,109 116,109L96,109L96,93L102.349,93C103.173,95.329 105.389,97 108,97C111.313,97 114,94.313 114,91C114,87.686 111.313,85 108,85C105.389,85 103.173,86.671 102.349,89L94,89C92.896,89 92,89.896 92,91L92,109L79,109L79,93.651C81.329,92.826 83,90.611 83,88C83,84.686 80.313,82 77,82C73.687,82 71,84.686 71,88C71,90.611 72.671,92.826 75,93.651L75,109L8,109C5.794,109 4,107.206 4,105L4,93L46.349,93C47.173,95.329 49.389,97 52,97C55.313,97 58,94.313 58,91C58,87.686 55.313,85 52,85C49.389,85 47.173,86.671 46.349,89L4,89L4,76L58.349,76C59.173,78.329 61.389,80 64,80C67.313,80 70,77.313 70,74C70,70.686 67.313,68 64,68C61.389,68 59.173,69.671 58.349,72L4,72L4,58L58.349,58C59.173,60.329 61.389,62 64,62C67.313,62 70,59.313 70,56C70,52.686 67.313,50 64,50C61.389,50 59.173,51.671 58.349,54L4,54L4,39L40.349,39C41.173,41.329 43.389,43 46,43C49.313,43 52,40.313 52,37C52,33.686 49.313,31 46,31C43.389,31 41.173,32.671 40.349,35L4,35L4,23C4,20.794 5.794,19 8,19L60,19L60,24.349C57.671,25.174 56,27.389 56,30C56,33.313 58.687,36 62,36C65.313,36 68,33.313 68,30C68,27.389 66.329,25.174 64,24.349L64,19L77,19L77,31.349C74.671,32.174 73,34.389 73,37C73,40.313 75.687,43 79,43C82.313,43 85,40.313 85,37C85,34.389 83.329,32.174 81,31.349L81,19L92,19L92,37C92,38.104 92.896,39 94,39L102.349,39C103.173,41.329 105.389,43 108,43C111.313,43 114,40.313 114,37C114,33.686 111.313,31 108,31C105.389,31 103.173,32.671 102.349,35L96,35L96,19L116,19C118.206,19 120,20.794 120,23L120,48.007C119.952,48.006 119.906,48 119.857,48L94.286,48C84.187,48 78,55.163 78,64C78,72.837 84.187,80 94.286,80L119.857,80C119.906,80 119.952,79.994 120,79.993L120,105ZM106,91C106,89.897 106.897,89 108,89C109.103,89 110,89.897 110,91C110,92.102 109.103,93 108,93C106.897,93 106,92.102 106,91ZM50,91C50,89.897 50.897,89 52,89C53.103,89 54,89.897 54,91C54,92.102 53.103,93 52,93C50.897,93 50,92.102 50,91ZM62,74C62,72.897 62.897,72 64,72C65.103,72 66,72.897 66,74C66,75.102 65.103,76 64,76C62.897,76 62,75.102 62,74ZM62,56C62,54.897 62.897,54 64,54C65.103,54 66,54.897 66,56C66,57.102 65.103,58 64,58C62.897,58 62,57.102 62,56ZM44,37C44,35.897 44.897,35 46,35C47.103,35 48,35.897 48,37C48,38.102 47.103,39 46,39C44.897,39 44,38.102 44,37ZM106,37C106,35.897 106.897,35 108,35C109.103,35 110,35.897 110,37C110,38.102 109.103,39 108,39C106.897,39 106,38.102 106,37ZM124,71.174C124,73.507 122.912,76 119.857,76L94.286,76C85.799,76 82,69.973 82,64C82,58.027 85.799,52 94.286,52L119.857,52C122.912,52 124,54.494 124,56.828L124,71.174Z" style="fill-rule:nonzero;"/>
        <path d="M94,58C90.691,58 88,60.691 88,64C88,67.309 90.691,70 94,70C97.309,70 100,67.309 100,64C100,60.691 97.309,58 94,58ZM94,66C92.897,66 92,65.102 92,64C92,62.897 92.897,62 94,62C95.103,62 96,62.897 96,64C96,65.102 95.103,66 94,66Z" style="fill-rule:nonzero;"/>
    </g>
</svg>
