<?xml version="1.0" encoding="UTF-8" standalone="no"?>
<!DOCTYPE svg PUBLIC "-//W3C//DTD SVG 1.1//EN" "http://www.w3.org/Graphics/SVG/1.1/DTD/svg11.dtd">
<svg width="100%" height="100%" viewBox="0 0 200 200" version="1.1" xmlns="http://www.w3.org/2000/svg" xmlns:xlink="http://www.w3.org/1999/xlink" xml:space="preserve" style="fill-rule:evenodd;clip-rule:evenodd;stroke-linejoin:round;stroke-miterlimit:1.41421;">
    <g id="idm" transform="matrix(1.84091,0,0,1.84091,7.95455,7.95455)">
        <path d="M38,75C38,73.896 38.897,73 40.005,73L59.995,73C61.103,73 62,73.888 62,75C62,76.104 61.103,77 59.995,77L40.005,77C38.897,77 38,76.112 38,75"/>
        <path d="M42,83C42,81.896 42.895,81 43.994,81L56.006,81C57.107,81 58,81.888 58,83C58,84.104 57.105,85 56.006,85L43.994,85C42.893,85 42,84.112 42,83"/>
        <path d="M50,14C48.896,14 48,14.896 48,16C48,17.104 48.896,18 50,18C51.104,18 52,17.104 52,16C52,14.896 51.104,14 50,14"/>
        <path d="M73,90L26.99,90.008L27,25L40,25C40.004,27.218 41.792,29 43.999,29L56.001,29C58.205,29 59.996,27.21 60,25L73,25L73.01,24.992L73,90ZM44,16.004C44,12.693 46.691,10 50,10C53.309,10 56,12.693 56,16.004L56.001,25L44,24.994L44,16.004ZM73,21L60,21L60,16.004C60,10.476 55.522,6 50,6C44.476,6 40,10.479 40,16.004L40,21L27,21C24.788,21 23,22.787 23,24.992L23,90.008C23,92.203 24.785,94 27,94L73,94C75.212,94 77,92.213 77,90.008L77,24.992C77,22.797 75.215,21 73,21Z"/>
        <path d="M60.622,58.47C59.477,56.276 57.681,54.481 55.484,53.342C56.431,52.149 57,50.642 57,49C57,45.134 53.866,42 50,42C46.134,42 43,45.134 43,49C43,50.642 43.569,52.149 44.516,53.342C42.32,54.48 40.521,56.275 39.376,58.468C37.885,56.353 37,53.78 37,51C37,43.832 42.831,38 50,38C57.168,38 63,43.832 63,51C63,53.781 62.115,56.354 60.622,58.47M47,49C47,47.346 48.346,46 50,46C51.654,46 53,47.346 53,49C53,50.655 51.654,52 50,52C48.346,52 47,50.655 47,49M42.397,61.523C43.443,58.322 46.454,56 50,56C53.546,56 56.557,58.322 57.602,61.523C55.462,63.074 52.84,64 50,64C47.16,64 44.538,63.074 42.397,61.523M50,34C40.611,34 33,41.612 33,51C33,60.389 40.611,68 50,68C59.389,68 67,60.389 67,51C67,41.612 59.389,34 50,34"/>
    </g>
</svg>
