<?xml version="1.0" encoding="UTF-8" standalone="no"?>
<!DOCTYPE svg PUBLIC "-//W3C//DTD SVG 1.1//EN" "http://www.w3.org/Graphics/SVG/1.1/DTD/svg11.dtd">
<svg width="100%" height="100%" viewBox="0 0 200 200" version="1.1" xmlns="http://www.w3.org/2000/svg" xmlns:xlink="http://www.w3.org/1999/xlink" xml:space="preserve" style="fill-rule:evenodd;clip-rule:evenodd;stroke-linejoin:round;stroke-miterlimit:1.41421;">
    <g id="communication" transform="matrix(7.76284,0,0,7.76284,6.84974,6.84586)">
        <path d="M20.159,6.304L15.006,6.304L15.006,5.446C15.006,4.262 14.043,3.299 12.859,3.299L3.841,3.299C2.657,3.299 1.694,4.262 1.694,5.446L1.694,12.316C1.694,13.5 2.657,14.463 3.841,14.463L4.27,14.463L4.27,16.836C4.27,17.188 4.481,17.5 4.807,17.632C4.912,17.675 5.022,17.695 5.13,17.695C5.358,17.695 5.581,17.604 5.746,17.432L8.616,14.462L9.852,14.462L9.852,15.321C9.852,16.505 10.815,17.468 11.999,17.468L15.812,17.468L18.682,20.438C18.848,20.61 19.07,20.701 19.298,20.701C19.407,20.701 19.516,20.68 19.621,20.638C19.947,20.506 20.158,20.193 20.158,19.841L20.158,17.468C21.342,17.468 22.305,16.505 22.305,15.321L22.305,8.451C22.306,7.268 21.342,6.304 20.159,6.304ZM8.435,13.604C8.319,13.604 8.207,13.651 8.126,13.735L5.13,16.836L5.13,14.034C5.13,13.797 4.938,13.605 4.701,13.605L3.841,13.605C3.131,13.605 2.553,13.027 2.553,12.317L2.553,5.447C2.553,4.737 3.131,4.159 3.841,4.159L12.858,4.159C13.568,4.159 14.146,4.737 14.146,5.447L14.146,12.317C14.146,13.027 13.568,13.605 12.858,13.605L8.435,13.605L8.435,13.604ZM21.447,15.322C21.447,16.032 20.869,16.61 20.159,16.61L19.73,16.61C19.493,16.61 19.301,16.802 19.301,17.039L19.301,19.841L16.304,16.74C16.223,16.656 16.112,16.609 15.995,16.609L12,16.609C11.29,16.609 10.712,16.031 10.712,15.321L10.712,14.462L12.859,14.462C14.043,14.462 15.006,13.499 15.006,12.315L15.006,7.163L20.159,7.163C20.869,7.163 21.447,7.741 21.447,8.451L21.447,15.322Z" style="fill-rule:nonzero;"/>
        <path d="M13.288,6.304L12,6.304C10.816,6.304 9.853,7.267 9.853,8.451L9.853,12.745L10.712,12.745L10.712,8.451C10.712,7.741 11.29,7.163 12,7.163L13.288,7.163L13.288,6.304Z" style="fill-rule:nonzero;"/>
    </g>
</svg>
