<?xml version="1.0" encoding="UTF-8" standalone="no"?>
<!DOCTYPE svg PUBLIC "-//W3C//DTD SVG 1.1//EN" "http://www.w3.org/Graphics/SVG/1.1/DTD/svg11.dtd">
<svg width="100%" height="100%" viewBox="0 0 200 200" version="1.1" xmlns="http://www.w3.org/2000/svg" xmlns:xlink="http://www.w3.org/1999/xlink" xml:space="preserve" style="fill-rule:evenodd;clip-rule:evenodd;stroke-linejoin:round;stroke-miterlimit:1.41421;">
    <g id="collab" transform="matrix(2.58065,0,0,2.58065,18.7097,18.7711)">
        <path d="M12,26.2C13.6,26.2 15.1,26.4 16.4,26.6C18.8,27 20.8,27.3 22.2,26.1C23.1,25.4 23.5,24.1 23.5,22.3C23.5,18.2 21.3,15.1 17,13.3C18,12.1 18.6,10.6 18.6,9C18.6,5.4 15.6,2.4 12,2.4C8.4,2.4 5.4,5.4 5.4,9C5.4,10.6 6,12.1 7,13.3C2.7,15.1 0.5,18.2 0.5,22.3C0.5,24.1 0.9,25.3 1.8,26.1C3.3,27.4 6.5,26.8 7.6,26.6C8.9,26.4 10.4,26.2 12,26.2ZM12,4.5C14.5,4.5 16.6,6.6 16.6,9.1C16.6,11.6 14.5,13.7 12,13.7C9.5,13.7 7.4,11.6 7.4,9.1C7.4,6.6 9.5,4.5 12,4.5ZM3.1,24.6C2.7,24.3 2.5,23.5 2.5,22.4C2.5,18.7 4.6,16.3 8.8,14.9C9.7,15.4 10.8,15.7 12,15.7C13.2,15.7 14.3,15.4 15.2,14.9C19.4,16.3 21.5,18.8 21.5,22.4C21.5,23.5 21.3,24.3 20.9,24.6C20.2,25.2 18.6,24.9 16.7,24.6C15.3,24.4 13.7,24.1 12,24.1C10.3,24.1 8.7,24.3 7.3,24.6C5.4,25 3.8,25.2 3.1,24.6Z" style="fill-rule:nonzero;"/>
        <path d="M56,13.4C57,12.2 57.6,10.7 57.6,9.1C57.6,5.5 54.6,2.5 51,2.5C47.4,2.5 44.4,5.5 44.4,9.1C44.4,10.7 45,12.2 46,13.4C41.7,15.2 39.5,18.3 39.5,22.4C39.5,24.2 39.9,25.4 40.8,26.2C42.3,27.5 45.5,26.9 46.6,26.7C47.9,26.5 49.5,26.3 51,26.3C52.6,26.3 54.1,26.5 55.4,26.7C57.8,27.1 59.8,27.4 61.2,26.2C62.1,25.5 62.5,24.2 62.5,22.4C62.5,18.3 60.3,15.2 56,13.4ZM51,4.5C53.5,4.5 55.6,6.6 55.6,9.1C55.6,11.6 53.5,13.7 51,13.7C48.5,13.7 46.4,11.6 46.4,9.1C46.4,6.6 48.5,4.5 51,4.5ZM59.9,24.6C59.2,25.2 57.6,24.9 55.7,24.6C54.3,24.4 52.7,24.1 51,24.1C49.3,24.1 47.7,24.3 46.3,24.6C44.4,24.9 42.8,25.1 42.1,24.6C41.7,24.3 41.5,23.5 41.5,22.4C41.5,18.7 43.6,16.3 47.8,14.9C48.7,15.4 49.8,15.7 51,15.7C52.2,15.7 53.3,15.4 54.2,14.9C58.4,16.3 60.5,18.8 60.5,22.4C60.5,23.5 60.3,24.3 59.9,24.6Z" style="fill-rule:nonzero;"/>
        <path d="M36.5,46.9C37.5,45.7 38.1,44.2 38.1,42.6C38.1,39 35.1,36 31.5,36C27.9,36 24.9,39 24.9,42.6C24.9,44.2 25.5,45.7 26.5,46.9C22.2,48.7 20,51.8 20,55.9C20,57.7 20.4,58.9 21.3,59.7C22.8,61 26,60.4 27.1,60.2C28.4,60 30,59.8 31.5,59.8C33.1,59.8 34.6,60 35.9,60.2C38.3,60.6 40.3,60.9 41.7,59.7C42.6,59 43,57.7 43,55.9C43,51.8 40.8,48.7 36.5,46.9ZM31.5,38C34,38 36.1,40.1 36.1,42.6C36.1,45.1 34,47.2 31.5,47.2C29,47.2 26.9,45.1 26.9,42.6C26.9,40.1 29,38 31.5,38ZM40.4,58.2C39.7,58.8 38.1,58.5 36.2,58.2C34.8,58 33.2,57.7 31.5,57.7C29.8,57.7 28.2,57.9 26.8,58.2C24.9,58.5 23.3,58.7 22.6,58.2C22.2,57.9 22,57.1 22,56C22,52.3 24.1,49.9 28.3,48.5C29.2,49 30.3,49.3 31.5,49.3C32.7,49.3 33.8,49 34.7,48.5C38.9,49.9 41,52.4 41,56C41,57.1 40.8,57.8 40.4,58.2Z" style="fill-rule:nonzero;"/>
        <path d="M42,46.8L43,48.6C50.4,44.6 55.1,36.9 55.5,28.6L53.5,28.5C53.2,36.1 48.8,43.1 42,46.8Z" style="fill-rule:nonzero;"/>
        <path d="M31.5,5.5C35.2,5.5 38.8,6.4 42,8.2L43,6.4C39.5,4.5 35.6,3.5 31.6,3.5C27.6,3.5 23.6,4.5 20.1,6.4L21.1,8.2C24.2,6.4 27.8,5.5 31.5,5.5Z" style="fill-rule:nonzero;"/>
        <path d="M21.9,47.3C14.6,43.8 9.9,36.6 9.5,28.5L7.5,28.6C7.9,37.4 13.1,45.3 21,49.2L21.9,47.3Z" style="fill-rule:nonzero;"/>
        <rect x="30.5" y="24.5" width="2" height="2"/>
        <rect x="34.5" y="24.5" width="2" height="2"/>
        <rect x="26.5" y="24.5" width="2" height="2"/>
    </g>
</svg>
